<?xml version="1.0" encoding="UTF-8"?>
<svg id="Capa_1" data-name="Capa 1" xmlns="http://www.w3.org/2000/svg" xmlns:xlink="http://www.w3.org/1999/xlink" viewBox="0 0 300 140">
  <defs>
    <style>
      .cls-1 {
        fill: none;
      }

      .cls-1, .cls-2 {
        stroke-width: 0px;
      }

      .cls-2 {
        fill: #fff;
        fill-rule: evenodd;
      }

      .cls-3 {
        clip-path: url(#clippath);
      }
    </style>
    <clipPath id="clippath">
      <rect class="cls-1" x="-2017.74" y="-422.71" width="1920" height="1080"/>
    </clipPath>
  </defs>
  <g class="cls-3">
    <image width="4182" height="2810" transform="translate(-2854.8 -768.42) scale(.7)" xlink:href="../../fotografias/Foto Hornero 01 B&amp;N AMPLIFICADO.jpg"/>
  </g>
  <g>
    <g>
      <path class="cls-2" d="m150,23.53c25.67,0,46.47,20.81,46.47,46.47s-20.81,46.47-46.47,46.47-46.47-20.81-46.47-46.47,20.81-46.47,46.47-46.47m0-3.19c27.43,0,49.66,22.23,49.66,49.66s-22.23,49.66-49.66,49.66-49.66-22.23-49.66-49.66,22.23-49.66,49.66-49.66Z"/>
      <path class="cls-2" d="m180.91,75.56l-9.82-.03,4.91-23.84,4.91,23.86Zm-61.47,0l9.82-.03-4.91-23.84-4.91,23.86Zm12.19-32.38l14.81,1.43c.35,7.79.55,14.17.71,19.96.06,2.13.1,4.17.15,6.18h-5.33c-.83-7-5.93-17.07-17.36-24.57-.02.06-.54,3.18-.65,3.77l-5.46,25.61h-3.37c.43,2.86,4.93,4.53,9.82,4.41,4.48-.11,7.8-2.08,8.63-4.45h-3.38s-5.28-24.74-5.28-24.74c9.02,6.92,13.2,14.77,13.1,23.01-.11,9.37-6.18,18.92-15.46,22.85-.06.03,1.96,3.94,2.09,3.73,9.7-4.48,16.95-16.22,17.46-25.74h5.27c.2,9.52.38,18.84.99,32.57,1.3.47,3.86.48,5.03-.06l.81-32.51h3.59c.91,9.34,8,20.48,17.39,24.82.13.21,2.15-3.7,2.09-3.73-9.28-3.94-15.35-13.48-15.46-22.85-.1-8.33,4.5-16.37,13.74-23.35l.07.36-5.47,25.64h-3.38c.83,2.36,4.15,4.33,8.63,4.44,4.89.12,9.39-1.54,9.82-4.4h-3.37s-5.66-26.53-5.66-26.53l.04-.03s-.19-.78-.4-1.63l-.09-.42v.03c-.22-.9-.42-1.76-.43-1.79-11.95,7.84-16.98,18.49-17.55,25.56h-3.47l.65-26.02.21-.77,12.74-.76c.25-.01.46-.03.62-.04,4.06-.31,3.99-5.85.25-5.88-24.73-.19,2.68-.61-37.51.27-3.69.08-3.41,5.78.37,5.63Z"/>
    </g>
    <rect class="cls-1" width="300" height="140"/>
  </g>
</svg>